<svg width="217" height="41" viewBox="0 0 217 41" fill="none" xmlns="http://www.w3.org/2000/svg">
<path d="M66.3567 19.6057H60.7676L60.7373 17.258H65.8114C66.6495 17.258 67.3816 17.1167 68.0076 16.8339C68.6337 16.5512 69.1184 16.1473 69.4617 15.6222C69.8151 15.0871 69.9918 14.4509 69.9918 13.7138C69.9918 12.906 69.8353 12.2496 69.5223 11.7447C69.2193 11.2298 68.7498 10.8561 68.1137 10.6239C67.4876 10.3816 66.6899 10.2604 65.7205 10.2604H61.4189V29.9205H58.4957V7.86725H65.7205C66.8515 7.86725 67.8612 7.98337 68.7498 8.21562C69.6384 8.43777 70.3907 8.79118 71.0066 9.27587C71.6327 9.75046 72.1073 10.3563 72.4304 11.0934C72.7535 11.8306 72.9151 12.7141 72.9151 13.7441C72.9151 14.6529 72.6828 15.4758 72.2183 16.2129C71.7538 16.94 71.1076 17.5357 70.2796 18.0002C69.4617 18.4647 68.5024 18.7626 67.4018 18.8939L66.3567 19.6057ZM66.2203 29.9205H59.6165L61.2675 27.5425H66.2203C67.1493 27.5425 67.9369 27.3809 68.5832 27.0578C69.2395 26.7347 69.7394 26.2803 70.0827 25.6946C70.426 25.0989 70.5977 24.3971 70.5977 23.5893C70.5977 22.7713 70.4513 22.0645 70.1584 21.4688C69.8656 20.873 69.4062 20.4136 68.7801 20.0904C68.154 19.7673 67.3462 19.6057 66.3567 19.6057H62.1914L62.2217 17.258H67.9167L68.5378 18.1062C69.598 18.1971 70.4967 18.5001 71.2338 19.015C71.9709 19.5199 72.5314 20.1662 72.9151 20.9538C73.3089 21.7414 73.5058 22.6098 73.5058 23.559C73.5058 24.9322 73.2029 26.0935 72.597 27.0426C72.0012 27.9817 71.1581 28.6987 70.0675 29.1934C68.977 29.6781 67.6946 29.9205 66.2203 29.9205ZM76.6562 21.908V21.5596C76.6562 20.3782 76.8279 19.2826 77.1712 18.2729C77.5145 17.253 78.0093 16.3695 78.6556 15.6222C79.3018 14.8649 80.0844 14.2792 81.0033 13.8652C81.9222 13.4411 82.9521 13.2291 84.0932 13.2291C85.2443 13.2291 86.2793 13.4411 87.1982 13.8652C88.1272 14.2792 88.9148 14.8649 89.561 15.6222C90.2174 16.3695 90.7172 17.253 91.0605 18.2729C91.4038 19.2826 91.5755 20.3782 91.5755 21.5596V21.908C91.5755 23.0894 91.4038 24.185 91.0605 25.1948C90.7172 26.2045 90.2174 27.0881 89.561 27.8454C88.9148 28.5926 88.1322 29.1783 87.2133 29.6024C86.3045 30.0164 85.2746 30.2234 84.1234 30.2234C82.9723 30.2234 81.9373 30.0164 81.0184 29.6024C80.0995 29.1783 79.3119 28.5926 78.6556 27.8454C78.0093 27.0881 77.5145 26.2045 77.1712 25.1948C76.8279 24.185 76.6562 23.0894 76.6562 21.908ZM79.4583 21.5596V21.908C79.4583 22.7259 79.5543 23.4984 79.7461 24.2254C79.938 24.9423 80.2258 25.5785 80.6095 26.1339C81.0033 26.6892 81.493 27.1285 82.0787 27.4516C82.6643 27.7646 83.3459 27.9211 84.1234 27.9211C84.8909 27.9211 85.5624 27.7646 86.1379 27.4516C86.7236 27.1285 87.2083 26.6892 87.592 26.1339C87.9757 25.5785 88.2635 24.9423 88.4553 24.2254C88.6573 23.4984 88.7583 22.7259 88.7583 21.908V21.5596C88.7583 20.7518 88.6573 19.9895 88.4553 19.2725C88.2635 18.5455 87.9706 17.9043 87.5768 17.3489C87.1931 16.7835 86.7084 16.3392 86.1228 16.016C85.5472 15.6929 84.8707 15.5313 84.0932 15.5313C83.3257 15.5313 82.6492 15.6929 82.0635 16.016C81.488 16.3392 81.0033 16.7835 80.6095 17.3489C80.2258 17.9043 79.938 18.5455 79.7461 19.2725C79.5543 19.9895 79.4583 20.7518 79.4583 21.5596ZM94.3473 21.908V21.5596C94.3473 20.3782 94.519 19.2826 94.8623 18.2729C95.2056 17.253 95.7004 16.3695 96.3466 15.6222C96.9929 14.8649 97.7754 14.2792 98.6943 13.8652C99.6132 13.4411 100.643 13.2291 101.784 13.2291C102.935 13.2291 103.97 13.4411 104.889 13.8652C105.818 14.2792 106.606 14.8649 107.252 15.6222C107.908 16.3695 108.408 17.253 108.752 18.2729C109.095 19.2826 109.267 20.3782 109.267 21.5596V21.908C109.267 23.0894 109.095 24.185 108.752 25.1948C108.408 26.2045 107.908 27.0881 107.252 27.8454C106.606 28.5926 105.823 29.1783 104.904 29.6024C103.996 30.0164 102.966 30.2234 101.814 30.2234C100.663 30.2234 99.6284 30.0164 98.7095 29.6024C97.7906 29.1783 97.003 28.5926 96.3466 27.8454C95.7004 27.0881 95.2056 26.2045 94.8623 25.1948C94.519 24.185 94.3473 23.0894 94.3473 21.908ZM97.1494 21.5596V21.908C97.1494 22.7259 97.2453 23.4984 97.4372 24.2254C97.629 24.9423 97.9168 25.5785 98.3005 26.1339C98.6943 26.6892 99.1841 27.1285 99.7697 27.4516C100.355 27.7646 101.037 27.9211 101.814 27.9211C102.582 27.9211 103.253 27.7646 103.829 27.4516C104.415 27.1285 104.899 26.6892 105.283 26.1339C105.667 25.5785 105.955 24.9423 106.146 24.2254C106.348 23.4984 106.449 22.7259 106.449 21.908V21.5596C106.449 20.7518 106.348 19.9895 106.146 19.2725C105.955 18.5455 105.662 17.9043 105.268 17.3489C104.884 16.7835 104.399 16.3392 103.814 16.016C103.238 15.6929 102.562 15.5313 101.784 15.5313C101.017 15.5313 100.34 15.6929 99.7546 16.016C99.179 16.3392 98.6943 16.7835 98.3005 17.3489C97.9168 17.9043 97.629 18.5455 97.4372 19.2725C97.2453 19.9895 97.1494 20.7518 97.1494 21.5596ZM115.567 16.7885V29.9205H112.75V13.532H115.416L115.567 16.7885ZM114.992 21.1052L113.689 21.0598C113.699 19.939 113.846 18.904 114.129 17.9548C114.411 16.9955 114.83 16.1625 115.386 15.4556C115.941 14.7488 116.633 14.2035 117.461 13.8198C118.289 13.426 119.248 13.2291 120.339 13.2291C121.106 13.2291 121.813 13.3402 122.459 13.5623C123.105 13.7744 123.666 14.1126 124.14 14.5771C124.615 15.0416 124.984 15.6374 125.246 16.3644C125.509 17.0914 125.64 17.9699 125.64 18.9999V29.9205H122.838V19.1362C122.838 18.2779 122.691 17.5913 122.399 17.0763C122.116 16.5613 121.712 16.1877 121.187 15.9555C120.662 15.7131 120.046 15.5919 119.339 15.5919C118.511 15.5919 117.819 15.7384 117.264 16.0312C116.708 16.324 116.264 16.7279 115.931 17.2429C115.598 17.7579 115.355 18.3486 115.204 19.015C115.063 19.6714 114.992 20.3681 114.992 21.1052ZM125.61 19.5603L123.731 20.1359C123.741 19.2372 123.888 18.3738 124.171 17.5458C124.463 16.7178 124.883 15.9807 125.428 15.3344C125.983 14.6882 126.665 14.1783 127.473 13.8047C128.28 13.4209 129.204 13.2291 130.244 13.2291C131.123 13.2291 131.9 13.3452 132.577 13.5775C133.264 13.8097 133.839 14.1682 134.304 14.6529C134.778 15.1274 135.137 15.7384 135.379 16.4856C135.621 17.2328 135.743 18.1214 135.743 19.1513V29.9205H132.925V19.1211C132.925 18.2022 132.779 17.4903 132.486 16.9854C132.203 16.4704 131.799 16.112 131.274 15.91C130.759 15.698 130.143 15.5919 129.426 15.5919C128.811 15.5919 128.265 15.698 127.791 15.91C127.316 16.1221 126.917 16.4149 126.594 16.7885C126.271 17.152 126.024 17.5711 125.852 18.0457C125.69 18.5202 125.61 19.0251 125.61 19.5603Z" fill="#999999"/>
<path d="M18.1831 17.6552C25.9889 12.7792 36.5204 16.3907 32.1166 24.9237C27.7128 33.4516 -12.5521 17.6451 3.9495 25.5003C20.4511 33.3555 26.8127 49.3543 33.5659 34.2306C40.3191 19.1069 48.4555 -13.6189 25.5719 6.26952C2.68837 26.1579 8.43977 23.7351 18.1831 17.6552Z" fill="#999999"/>
</svg>
